<svg width="120" height="30" viewBox="0 0 120 30" fill="none" xmlns="http://www.w3.org/2000/svg">
<path d="M24.8874 6.54545V24H20.9329L14.6261 14.8295H14.5238V24H9.78516V6.54545H13.8079L20.0124 15.6818H20.1488V6.54545H24.8874ZM33.5039 24.2386C32.0835 24.2386 30.8675 23.9574 29.8562 23.3949C28.8448 22.8267 28.0692 22.0369 27.5295 21.0256C26.9897 20.0085 26.7198 18.8295 26.7198 17.4886C26.7198 16.1477 26.9897 14.9716 27.5295 13.9602C28.0692 12.9432 28.8448 12.1534 29.8562 11.5909C30.8675 11.0227 32.0835 10.7386 33.5039 10.7386C34.9244 10.7386 36.1403 11.0227 37.1516 11.5909C38.163 12.1534 38.9386 12.9432 39.4783 13.9602C40.0181 14.9716 40.288 16.1477 40.288 17.4886C40.288 18.8295 40.0181 20.0085 39.4783 21.0256C38.9386 22.0369 38.163 22.8267 37.1516 23.3949C36.1403 23.9574 34.9244 24.2386 33.5039 24.2386ZM33.538 20.7614C33.9357 20.7614 34.2795 20.6278 34.5692 20.3608C34.859 20.0937 35.0835 19.7131 35.2425 19.2188C35.4016 18.7244 35.4812 18.1364 35.4812 17.4545C35.4812 16.767 35.4016 16.179 35.2425 15.6903C35.0835 15.196 34.859 14.8153 34.5692 14.5483C34.2795 14.2812 33.9357 14.1477 33.538 14.1477C33.1175 14.1477 32.7567 14.2812 32.4556 14.5483C32.1545 14.8153 31.9244 15.196 31.7653 15.6903C31.6062 16.179 31.5266 16.767 31.5266 17.4545C31.5266 18.1364 31.6062 18.7244 31.7653 19.2188C31.9244 19.7131 32.1545 20.0937 32.4556 20.3608C32.7567 20.6278 33.1175 20.7614 33.538 20.7614ZM54.9918 10.9091L50.5941 24H45.1396L40.7418 10.9091H45.685L47.7987 19.5682H47.935L50.0487 10.9091H54.9918ZM59.6495 24.2045C58.8143 24.2045 58.0756 24.0682 57.4336 23.7955C56.7972 23.517 56.2972 23.0966 55.9336 22.5341C55.57 21.9716 55.3881 21.2557 55.3881 20.3864C55.3881 19.6705 55.5103 19.0597 55.7546 18.554C55.9989 18.0426 56.3398 17.625 56.7773 17.3011C57.2148 16.9773 57.7234 16.7301 58.3029 16.5597C58.8881 16.3892 59.5188 16.2784 60.195 16.2273C60.9279 16.1705 61.516 16.1023 61.9592 16.0227C62.408 15.9375 62.7319 15.821 62.9308 15.6733C63.1296 15.5199 63.229 15.3182 63.229 15.0682V15.0341C63.229 14.6932 63.0984 14.4318 62.837 14.25C62.5756 14.0682 62.2404 13.9773 61.8313 13.9773C61.3825 13.9773 61.016 14.0767 60.7319 14.2756C60.4535 14.4687 60.2859 14.767 60.229 15.1705H55.8995C55.9563 14.375 56.2092 13.642 56.658 12.9716C57.1126 12.2955 57.7745 11.7557 58.6438 11.3523C59.5131 10.9432 60.5984 10.7386 61.8995 10.7386C62.837 10.7386 63.6779 10.8494 64.4222 11.071C65.1665 11.2869 65.8001 11.5909 66.3228 11.983C66.8455 12.3693 67.2433 12.8239 67.516 13.3466C67.7944 13.8636 67.9336 14.4261 67.9336 15.0341V24H63.5359V22.1591H63.4336C63.1722 22.6477 62.854 23.0426 62.479 23.3438C62.1097 23.6449 61.6864 23.8636 61.2092 24C60.7376 24.1364 60.2177 24.2045 59.6495 24.2045ZM61.1836 21.2386C61.5415 21.2386 61.8768 21.1648 62.1893 21.017C62.5075 20.8693 62.766 20.6562 62.9648 20.3778C63.1637 20.0994 63.2631 19.7614 63.2631 19.3636V18.2727C63.1381 18.3239 63.0046 18.3722 62.8626 18.4176C62.7262 18.4631 62.5785 18.5057 62.4194 18.5455C62.266 18.5852 62.1012 18.6222 61.9251 18.6562C61.7546 18.6903 61.5756 18.7216 61.3881 18.75C61.0245 18.8068 60.7262 18.9006 60.4933 19.0312C60.266 19.1562 60.0955 19.3125 59.9819 19.5C59.8739 19.6818 59.82 19.8864 59.82 20.1136C59.82 20.4773 59.9478 20.7557 60.2035 20.9489C60.4592 21.142 60.7859 21.2386 61.1836 21.2386Z" fill="#DC5C5E"/>
<path d="M81.9492 11.6367C81.5117 11.0117 81.1172 10.5703 80.7656 10.3125C80.4141 10.0469 80.0352 9.85938 79.6289 9.75C79.2227 9.63281 78.7969 9.57422 78.3516 9.57422C77.6953 9.57422 77.0859 9.72266 76.5234 10.0195C75.9609 10.3086 75.4727 10.707 75.0586 11.2148C74.6523 11.7148 74.332 12.3008 74.0977 12.9727C73.8633 13.6367 73.7461 14.3438 73.7461 15.0938C73.7461 15.8516 73.8594 16.5664 74.0859 17.2383C74.3203 17.9023 74.6406 18.4844 75.0469 18.9844C75.4531 19.4844 75.9375 19.8828 76.5 20.1797C77.0625 20.4688 77.6797 20.6133 78.3516 20.6133C78.8203 20.6133 79.2578 20.5391 79.6641 20.3906C80.0703 20.2344 80.4375 20.0312 80.7656 19.7812C81.1016 19.5312 81.3945 19.2461 81.6445 18.9258C81.8945 18.5977 82.0898 18.2578 82.2305 17.9062L86.0039 18.9609C85.7617 19.7266 85.4062 20.4375 84.9375 21.0938C84.4688 21.7422 83.9023 22.3047 83.2383 22.7812C82.582 23.2578 81.8398 23.6328 81.0117 23.9062C80.1914 24.1797 79.3047 24.3164 78.3516 24.3164C77.5469 24.3164 76.7773 24.207 76.043 23.9883C75.3086 23.7695 74.6211 23.4609 73.9805 23.0625C73.3477 22.6641 72.7695 22.1836 72.2461 21.6211C71.7305 21.0586 71.2891 20.4375 70.9219 19.7578C70.5547 19.0703 70.2695 18.3359 70.0664 17.5547C69.8633 16.7656 69.7617 15.9453 69.7617 15.0938C69.7617 13.8203 69.9844 12.6289 70.4297 11.5195C70.875 10.4023 71.4844 9.42969 72.2578 8.60156C73.0312 7.76563 73.9375 7.10938 74.9766 6.63281C76.0234 6.14844 77.1484 5.90625 78.3516 5.90625C79.3125 5.90625 80.1211 6.02734 80.7773 6.26953C81.4336 6.50391 82.1562 6.97266 82.9453 7.67578H85.5703V11.6367H81.9492ZM95.6016 23.3438C95.3281 23.5156 95.0781 23.6641 94.8516 23.7891C94.625 23.9062 94.3984 24 94.1719 24.0703C93.9453 24.1484 93.7109 24.2031 93.4688 24.2344C93.2266 24.2734 92.9609 24.293 92.6719 24.293C91.9453 24.293 91.293 24.1953 90.7148 24C90.1445 23.7969 89.6602 23.5234 89.2617 23.1797C88.8711 22.8281 88.5703 22.418 88.3594 21.9492C88.1484 21.4727 88.043 20.957 88.043 20.4023C88.043 19.8398 88.1484 19.3203 88.3594 18.8438C88.5781 18.3672 88.8906 17.9609 89.2969 17.625C89.7031 17.2812 90.1992 17.0156 90.7852 16.8281C91.3789 16.6328 92.0547 16.5352 92.8125 16.5352C93.3672 16.5352 93.8711 16.5664 94.3242 16.6289C94.7852 16.6836 95.2109 16.7539 95.6016 16.8398V16.4648C95.6016 16.1602 95.543 15.8984 95.4258 15.6797C95.3086 15.4531 95.1445 15.2695 94.9336 15.1289C94.7227 14.9805 94.4688 14.875 94.1719 14.8125C93.875 14.7422 93.5508 14.707 93.1992 14.707C92.4648 14.707 91.8164 14.7812 91.2539 14.9297C90.6992 15.0703 90.1641 15.2773 89.6484 15.5508L88.5234 13.2773C89.3203 12.7305 90.1523 12.3125 91.0195 12.0234C91.8945 11.7344 92.8203 11.5898 93.7969 11.5898C94.5547 11.5898 95.2539 11.6758 95.8945 11.8477C96.543 12.0117 97.0977 12.2852 97.5586 12.668C98.0195 13.043 98.3789 13.5352 98.6367 14.1445C98.9023 14.7539 99.0352 15.4961 99.0352 16.3711V20.7891H100.664V24H95.6016V23.3438ZM92.9297 21.5273C93.4844 21.5273 93.9883 21.4375 94.4414 21.2578C94.8945 21.0781 95.2812 20.8594 95.6016 20.6016V19.0547H92.7891C92.6094 19.0547 92.4336 19.082 92.2617 19.1367C92.0898 19.1914 91.9336 19.2695 91.793 19.3711C91.6602 19.4727 91.5508 19.5977 91.4648 19.7461C91.3867 19.8945 91.3477 20.0664 91.3477 20.2617C91.3477 20.6211 91.4766 20.9219 91.7344 21.1641C92 21.4062 92.3984 21.5273 92.9297 21.5273ZM102.891 5.76562H108.363V20.7891H110.238V24H102.891V20.7891H104.766V8.97656H102.891V5.76562Z" fill="#1C1917"/>
</svg>
